<svg width="205" height="55" viewBox="0 0 205 55" fill="none" xmlns="http://www.w3.org/2000/svg">
<path d="M15.048 37.1043C8.4516 46.9849 13.3989 53.1344 16.5597 55C4.26015 54.6545 0 45.9485 0 40.4209C0 36.615 2.31331 31.4615 3.71045 29.3656C6.73379 25.441 7.76447 23.0779 7.14606 19.2085C10.1144 21.696 10.7878 25.9799 10.5129 28.26C15.3915 23.2161 12.8993 16.9975 13.0553 11.1935C13.2202 5.05779 17.2467 1.17462 19.2394 0C15.8313 6.799 20.1097 10.6637 22.675 11.7462C21.7467 10.7029 21.5552 8.75494 21.5752 7.89387C21.5749 7.88808 21.575 7.88242 21.5756 7.87688C21.5754 7.8825 21.5753 7.88816 21.5752 7.89387C21.6014 8.46708 25.5898 10.3236 28.4468 13.1281C34.5622 19.9686 32.6382 27.5691 32.8444 29.1583C34.4719 28.4082 35.2071 26.6036 35.7765 25.206L35.799 25.1508C40.8562 28.6332 41.7082 35.3078 41.9831 38.348C42.3267 44.4284 37.3794 54.3781 32.0885 53.8254C26.7977 53.2726 26.7977 48.3668 28.0345 45.3957C29.024 43.0188 28.63 41.1809 28.3094 40.559C27.8284 42.9774 24.6676 45.8794 25.286 44.7739C28.6942 37.5879 23.7286 31.5075 20.8198 29.3656C21.4382 31.7839 15.6222 42.6666 15.2541 41.8028C15.048 41.3191 14.8647 38.4862 15.048 37.1043Z" fill="url(#paint0_linear)"/>
<path d="M68.152 39.288C66.4 39.288 64.852 38.916 63.508 38.172C62.188 37.428 61.168 36.372 60.448 35.004C59.728 33.636 59.368 32.04 59.368 30.216C59.368 28.392 59.74 26.784 60.484 25.392C61.252 23.976 62.32 22.884 63.688 22.116C65.056 21.348 66.628 20.964 68.404 20.964C69.34 20.964 70.276 21.096 71.212 21.36C72.172 21.624 73.012 21.984 73.732 22.44C74.5 22.944 74.884 23.58 74.884 24.348C74.884 24.876 74.752 25.308 74.488 25.644C74.248 25.956 73.924 26.112 73.516 26.112C73.252 26.112 72.976 26.052 72.688 25.932C72.4 25.812 72.112 25.668 71.824 25.5C71.296 25.188 70.792 24.948 70.312 24.78C69.832 24.588 69.28 24.492 68.656 24.492C67.168 24.492 66.016 24.984 65.2 25.968C64.408 26.928 64.012 28.32 64.012 30.144C64.012 31.944 64.408 33.336 65.2 34.32C66.016 35.28 67.168 35.76 68.656 35.76C69.256 35.76 69.784 35.676 70.24 35.508C70.72 35.316 71.248 35.064 71.824 34.752C72.184 34.536 72.496 34.38 72.76 34.284C73.024 34.164 73.288 34.104 73.552 34.104C73.936 34.104 74.26 34.272 74.524 34.608C74.788 34.944 74.92 35.364 74.92 35.868C74.92 36.276 74.824 36.636 74.632 36.948C74.464 37.236 74.176 37.5 73.768 37.74C73.024 38.22 72.16 38.604 71.176 38.892C70.192 39.156 69.184 39.288 68.152 39.288ZM87.3501 20.964C89.7981 20.964 91.6101 21.576 92.7861 22.8C93.9861 24 94.5861 25.836 94.5861 28.308V37.092C94.5861 37.74 94.3941 38.256 94.0101 38.64C93.6261 39 93.0981 39.18 92.4261 39.18C91.8021 39.18 91.2861 38.988 90.8781 38.604C90.4941 38.22 90.3021 37.716 90.3021 37.092V36.3C89.8941 37.236 89.2461 37.968 88.3581 38.496C87.4941 39.024 86.4861 39.288 85.3341 39.288C84.1581 39.288 83.0901 39.048 82.1301 38.568C81.1701 38.088 80.4141 37.428 79.8621 36.588C79.3101 35.748 79.0341 34.812 79.0341 33.78C79.0341 32.484 79.3581 31.464 80.0061 30.72C80.6781 29.976 81.7581 29.436 83.2461 29.1C84.7341 28.764 86.7861 28.596 89.4021 28.596H90.3021V27.768C90.3021 26.592 90.0501 25.74 89.5461 25.212C89.0421 24.66 88.2261 24.384 87.0981 24.384C86.4021 24.384 85.6941 24.492 84.9741 24.708C84.2541 24.9 83.4021 25.188 82.4181 25.572C81.7941 25.884 81.3381 26.04 81.0501 26.04C80.6181 26.04 80.2581 25.884 79.9701 25.572C79.7061 25.26 79.5741 24.852 79.5741 24.348C79.5741 23.94 79.6701 23.592 79.8621 23.304C80.0781 22.992 80.4261 22.704 80.9061 22.44C81.7461 21.984 82.7421 21.624 83.8941 21.36C85.0701 21.096 86.2221 20.964 87.3501 20.964ZM86.2341 36.048C87.4341 36.048 88.4061 35.652 89.1501 34.86C89.9181 34.044 90.3021 33 90.3021 31.728V30.972H89.6541C88.0461 30.972 86.7981 31.044 85.9101 31.188C85.0221 31.332 84.3861 31.584 84.0021 31.944C83.6181 32.304 83.4261 32.796 83.4261 33.42C83.4261 34.188 83.6901 34.824 84.2181 35.328C84.7701 35.808 85.4421 36.048 86.2341 36.048ZM103.192 39.216C102.544 39.216 102.004 39.036 101.572 38.676C101.164 38.292 100.96 37.752 100.96 37.056V15.564C100.96 14.868 101.164 14.34 101.572 13.98C102.004 13.62 102.544 13.44 103.192 13.44C103.84 13.44 104.38 13.62 104.812 13.98C105.244 14.34 105.46 14.868 105.46 15.564V37.056C105.46 37.752 105.244 38.292 104.812 38.676C104.38 39.036 103.84 39.216 103.192 39.216ZM119.712 39.288C117.96 39.288 116.412 38.916 115.068 38.172C113.748 37.428 112.728 36.372 112.008 35.004C111.288 33.636 110.928 32.04 110.928 30.216C110.928 28.392 111.3 26.784 112.044 25.392C112.812 23.976 113.88 22.884 115.248 22.116C116.616 21.348 118.188 20.964 119.964 20.964C120.9 20.964 121.836 21.096 122.772 21.36C123.732 21.624 124.572 21.984 125.292 22.44C126.06 22.944 126.444 23.58 126.444 24.348C126.444 24.876 126.312 25.308 126.048 25.644C125.808 25.956 125.484 26.112 125.076 26.112C124.812 26.112 124.536 26.052 124.248 25.932C123.96 25.812 123.672 25.668 123.384 25.5C122.856 25.188 122.352 24.948 121.872 24.78C121.392 24.588 120.84 24.492 120.216 24.492C118.728 24.492 117.576 24.984 116.76 25.968C115.968 26.928 115.572 28.32 115.572 30.144C115.572 31.944 115.968 33.336 116.76 34.32C117.576 35.28 118.728 35.76 120.216 35.76C120.816 35.76 121.344 35.676 121.8 35.508C122.28 35.316 122.808 35.064 123.384 34.752C123.744 34.536 124.056 34.38 124.32 34.284C124.584 34.164 124.848 34.104 125.112 34.104C125.496 34.104 125.82 34.272 126.084 34.608C126.348 34.944 126.48 35.364 126.48 35.868C126.48 36.276 126.384 36.636 126.192 36.948C126.024 37.236 125.736 37.5 125.328 37.74C124.584 38.22 123.72 38.604 122.736 38.892C121.752 39.156 120.744 39.288 119.712 39.288ZM151.366 35.508C151.846 35.964 152.086 36.48 152.086 37.056C152.086 37.608 151.87 38.1 151.438 38.532C151.03 38.94 150.538 39.144 149.962 39.144C149.362 39.144 148.81 38.892 148.306 38.388L136.318 27.156V36.876C136.318 37.572 136.102 38.136 135.67 38.568C135.262 39 134.698 39.216 133.978 39.216C133.282 39.216 132.718 39 132.286 38.568C131.878 38.136 131.674 37.572 131.674 36.876V15.744C131.674 15.048 131.878 14.496 132.286 14.088C132.718 13.656 133.282 13.44 133.978 13.44C134.698 13.44 135.262 13.656 135.67 14.088C136.102 14.496 136.318 15.048 136.318 15.744V24.996L147.91 14.124C148.342 13.692 148.834 13.476 149.386 13.476C149.938 13.476 150.418 13.692 150.826 14.124C151.258 14.532 151.474 15.012 151.474 15.564C151.474 16.116 151.234 16.62 150.754 17.076L141.07 25.932L151.366 35.508ZM164.48 39.288C162.728 39.288 161.18 38.916 159.836 38.172C158.516 37.428 157.496 36.372 156.776 35.004C156.056 33.636 155.696 32.04 155.696 30.216C155.696 28.392 156.068 26.784 156.812 25.392C157.58 23.976 158.648 22.884 160.016 22.116C161.384 21.348 162.956 20.964 164.732 20.964C165.668 20.964 166.604 21.096 167.54 21.36C168.5 21.624 169.34 21.984 170.06 22.44C170.828 22.944 171.212 23.58 171.212 24.348C171.212 24.876 171.08 25.308 170.816 25.644C170.576 25.956 170.252 26.112 169.844 26.112C169.58 26.112 169.304 26.052 169.016 25.932C168.728 25.812 168.44 25.668 168.152 25.5C167.624 25.188 167.12 24.948 166.64 24.78C166.16 24.588 165.608 24.492 164.984 24.492C163.496 24.492 162.344 24.984 161.528 25.968C160.736 26.928 160.34 28.32 160.34 30.144C160.34 31.944 160.736 33.336 161.528 34.32C162.344 35.28 163.496 35.76 164.984 35.76C165.584 35.76 166.112 35.676 166.568 35.508C167.048 35.316 167.576 35.064 168.152 34.752C168.512 34.536 168.824 34.38 169.088 34.284C169.352 34.164 169.616 34.104 169.88 34.104C170.264 34.104 170.588 34.272 170.852 34.608C171.116 34.944 171.248 35.364 171.248 35.868C171.248 36.276 171.152 36.636 170.96 36.948C170.792 37.236 170.504 37.5 170.096 37.74C169.352 38.22 168.488 38.604 167.504 38.892C166.52 39.156 165.512 39.288 164.48 39.288ZM183.678 20.964C186.126 20.964 187.938 21.576 189.114 22.8C190.314 24 190.914 25.836 190.914 28.308V37.092C190.914 37.74 190.722 38.256 190.338 38.64C189.954 39 189.426 39.18 188.754 39.18C188.13 39.18 187.614 38.988 187.206 38.604C186.822 38.22 186.63 37.716 186.63 37.092V36.3C186.222 37.236 185.574 37.968 184.686 38.496C183.822 39.024 182.814 39.288 181.662 39.288C180.486 39.288 179.418 39.048 178.458 38.568C177.498 38.088 176.742 37.428 176.19 36.588C175.638 35.748 175.362 34.812 175.362 33.78C175.362 32.484 175.686 31.464 176.334 30.72C177.006 29.976 178.086 29.436 179.574 29.1C181.062 28.764 183.114 28.596 185.73 28.596H186.63V27.768C186.63 26.592 186.378 25.74 185.874 25.212C185.37 24.66 184.554 24.384 183.426 24.384C182.73 24.384 182.022 24.492 181.302 24.708C180.582 24.9 179.73 25.188 178.746 25.572C178.122 25.884 177.666 26.04 177.378 26.04C176.946 26.04 176.586 25.884 176.298 25.572C176.034 25.26 175.902 24.852 175.902 24.348C175.902 23.94 175.998 23.592 176.19 23.304C176.406 22.992 176.754 22.704 177.234 22.44C178.074 21.984 179.07 21.624 180.222 21.36C181.398 21.096 182.55 20.964 183.678 20.964ZM182.562 36.048C183.762 36.048 184.734 35.652 185.478 34.86C186.246 34.044 186.63 33 186.63 31.728V30.972H185.982C184.374 30.972 183.126 31.044 182.238 31.188C181.35 31.332 180.714 31.584 180.33 31.944C179.946 32.304 179.754 32.796 179.754 33.42C179.754 34.188 180.018 34.824 180.546 35.328C181.098 35.808 181.77 36.048 182.562 36.048ZM199.52 39.216C198.872 39.216 198.332 39.036 197.9 38.676C197.492 38.292 197.288 37.752 197.288 37.056V15.564C197.288 14.868 197.492 14.34 197.9 13.98C198.332 13.62 198.872 13.44 199.52 13.44C200.168 13.44 200.708 13.62 201.14 13.98C201.572 14.34 201.788 14.868 201.788 15.564V37.056C201.788 37.752 201.572 38.292 201.14 38.676C200.708 39.036 200.168 39.216 199.52 39.216Z" fill="url(#paint1_linear)"/>
<defs>
<linearGradient id="paint0_linear" x1="2.40492" y1="17.4812" x2="45.3936" y2="62.4307" gradientUnits="userSpaceOnUse">
<stop stop-color="#FF2E63"/>
<stop offset="1" stop-color="#1F4186"/>
</linearGradient>
<linearGradient id="paint1_linear" x1="49.0909" y1="27" x2="220.981" y2="5.36349" gradientUnits="userSpaceOnUse">
<stop stop-color="#1F4186"/>
<stop offset="0.536458" stop-color="#FF2E63"/>
</linearGradient>
</defs>
</svg>
