<svg width="42" height="55" viewBox="0 0 42 55" fill="none" xmlns="http://www.w3.org/2000/svg">
<path d="M15.048 37.1043C8.4516 46.9849 13.3989 53.1344 16.5597 55C4.26015 54.6545 0 45.9485 0 40.4209C0 36.615 2.31331 31.4615 3.71045 29.3656C6.73379 25.441 7.76447 23.0779 7.14606 19.2085C10.1144 21.696 10.7878 25.9799 10.5129 28.26C15.3915 23.2161 12.8993 16.9975 13.0553 11.1935C13.2202 5.05779 17.2467 1.17462 19.2394 0C15.8313 6.799 20.1097 10.6637 22.675 11.7462C21.7467 10.7029 21.5552 8.75494 21.5752 7.89387C21.5749 7.88808 21.575 7.88242 21.5756 7.87688C21.5754 7.8825 21.5753 7.88816 21.5752 7.89387C21.6014 8.46708 25.5898 10.3236 28.4468 13.1281C34.5622 19.9686 32.6382 27.5691 32.8444 29.1583C34.4719 28.4082 35.2071 26.6036 35.7765 25.206L35.799 25.1508C40.8562 28.6332 41.7082 35.3078 41.9831 38.348C42.3267 44.4284 37.3794 54.3781 32.0885 53.8254C26.7977 53.2726 26.7977 48.3668 28.0345 45.3957C29.024 43.0188 28.63 41.1809 28.3094 40.559C27.8284 42.9774 24.6676 45.8794 25.286 44.7739C28.6942 37.5879 23.7286 31.5075 20.8198 29.3656C21.4382 31.7839 15.6222 42.6666 15.2541 41.8028C15.048 41.3191 14.8647 38.4862 15.048 37.1043Z" fill="url(#paint0_linear)"/>
<defs>
<linearGradient id="paint0_linear" x1="2.40492" y1="17.4812" x2="45.3936" y2="62.4307" gradientUnits="userSpaceOnUse">
<stop stop-color="#FF2E63"/>
<stop offset="1" stop-color="#1F4186"/>
</linearGradient>
</defs>
</svg>
